<svg width="105" height="105" viewBox="0 0 105 105" fill="none" xmlns="http://www.w3.org/2000/svg">
<g clip-path="url(#clip0_75_497)">
<path d="M27.748 13.5562C27.7244 13.7775 27.6575 13.9921 27.5509 14.1876C27.4444 14.3831 27.3004 14.5556 27.1272 14.6954C26.9539 14.8352 26.7548 14.9395 26.5413 15.0024C26.3277 15.0652 26.1038 15.0853 25.8825 15.0616C25.6611 15.038 25.4466 14.971 25.2511 14.8645C25.0556 14.758 24.883 14.614 24.7432 14.4408C24.6034 14.2675 24.4991 14.0684 24.4363 13.8548C24.3735 13.6413 24.3533 13.4174 24.3771 13.1961L24.7372 9.82514C24.7607 9.60377 24.8277 9.38922 24.9342 9.19373C25.0407 8.99825 25.1847 8.82568 25.358 8.68587C25.5312 8.54607 25.7303 8.44177 25.9439 8.37895C26.1575 8.31613 26.3813 8.296 26.6027 8.31973C26.8241 8.3433 27.0386 8.41025 27.2341 8.51678C27.4296 8.6233 27.6021 8.7673 27.742 8.94054C27.8818 9.11379 27.9861 9.31289 28.0489 9.52646C28.1117 9.74003 28.1318 9.96389 28.1081 10.1852L27.748 13.5562ZM20.6461 16.2069C20.8674 16.2304 21.082 16.2973 21.2775 16.4038C21.473 16.5104 21.6456 16.6543 21.7854 16.8276C21.9252 17.0009 22.0295 17.2 22.0923 17.4136C22.1551 17.6272 22.1752 17.851 22.1515 18.0724C22.1279 18.2938 22.061 18.5084 21.9545 18.7039C21.848 18.8994 21.704 19.0719 21.5307 19.2118C21.3575 19.3516 21.1584 19.4559 20.9448 19.5187C20.7312 19.5815 20.5073 19.6016 20.286 19.5778L16.915 19.2177C16.6936 19.1942 16.4791 19.1272 16.2836 19.0207C16.0881 18.9142 15.9155 18.7702 15.7757 18.597C15.6358 18.4237 15.5316 18.2246 15.4688 18.011C15.4059 17.7974 15.3859 17.5735 15.4096 17.3522C15.4331 17.1308 15.5001 16.9162 15.6066 16.7207C15.7131 16.5252 15.8571 16.3526 16.0304 16.2128C16.2036 16.073 16.4027 15.9687 16.6163 15.9059C16.8299 15.8431 17.0538 15.823 17.2751 15.8468L20.6461 16.2069ZM77.4926 90.4686C77.5403 90.0216 77.7637 89.6118 78.1136 89.3295C78.4634 89.0472 78.9111 88.9154 79.3581 88.9632C79.5795 88.9867 79.794 89.0537 79.9895 89.1602C80.185 89.2667 80.3576 89.4107 80.4974 89.584C80.6372 89.7572 80.7415 89.9563 80.8043 90.1699C80.8671 90.3835 80.8872 90.6073 80.8635 90.8287L80.5034 94.1996C80.4557 94.6466 80.2323 95.0564 79.8824 95.3387C79.5326 95.621 79.0849 95.7528 78.6379 95.705C78.4165 95.6815 78.202 95.6145 78.0065 95.508C77.811 95.4015 77.6384 95.2575 77.4986 95.0842C77.3588 94.911 77.2545 94.7119 77.1917 94.4983C77.1289 94.2847 77.1088 94.0609 77.1325 93.8395L77.4926 90.4686ZM84.5945 87.8179C84.3731 87.7943 84.1586 87.7274 83.9631 87.6209C83.7676 87.5144 83.595 87.3704 83.4552 87.1971C83.3153 87.0239 83.211 86.8248 83.1482 86.6112C83.0854 86.3976 83.0653 86.1737 83.0891 85.9524C83.1126 85.731 83.1796 85.5164 83.2861 85.3209C83.3926 85.1254 83.5366 84.9528 83.7098 84.813C83.8831 84.6732 84.0822 84.5689 84.2958 84.5061C84.5094 84.4433 84.7333 84.4232 84.9546 84.447L88.3255 84.8071C88.5469 84.8306 88.7615 84.8975 88.957 85.004C89.1525 85.1105 89.3251 85.2545 89.4649 85.4278C89.6047 85.601 89.709 85.8002 89.7718 86.0137C89.8346 86.2273 89.8547 86.4512 89.831 86.6726C89.8074 86.894 89.7405 87.1085 89.634 87.304C89.5275 87.4995 89.3835 87.6721 89.2102 87.8119C89.037 87.9517 88.8379 88.056 88.6243 88.1188C88.4107 88.1817 88.1868 88.2017 87.9654 88.178L84.5945 87.8179Z" fill="#107300"/>
<path d="M87.9506 40.444L20.531 33.2418L30.5788 18.9726L81.1438 24.3743L87.9506 40.444Z" fill="#107300"/>
<path d="M20.531 33.2418L30.5788 18.9726L37.3859 35.0424L20.531 33.2418Z" fill="#37C520"/>
<path d="M30.5788 18.9726L20.531 33.2418L23.9019 33.6019L31.9405 22.1862L30.5788 18.9726Z" fill="#107300"/>
<path d="M71.0957 38.6435L81.1438 24.3743L87.9506 40.444L71.0957 38.6435ZM37.3859 35.0424L47.434 20.7732L54.2408 36.8429L37.3859 35.0424Z" fill="#37C520"/>
<path d="M54.2408 36.8429L64.2886 22.5737L71.0957 38.6435L54.2408 36.8429Z" fill="#37C520"/>
<path d="M37.3859 35.0424L49.3793 82.3513L20.531 33.2418L37.3859 35.0424Z" fill="#107300"/>
<path d="M23.9019 33.6019L20.531 33.2418L49.3793 82.3513L46.9807 72.8897L23.9019 33.6019Z" fill="#107300"/>
<path d="M71.0957 38.6435L49.3793 82.3513L87.9506 40.444L71.0957 38.6435ZM54.2408 36.8429L49.3793 82.3513L37.3859 35.0424L54.2408 36.8429Z" fill="#107300"/>
<path d="M54.2408 36.8429L49.3793 82.3513L71.0957 38.6435L54.2408 36.8429Z" fill="#107300"/>
<path d="M27.748 13.5562C27.7244 13.7775 27.6575 13.9921 27.5509 14.1876C27.4444 14.3831 27.3004 14.5556 27.1272 14.6954C26.9539 14.8352 26.7548 14.9395 26.5413 15.0024C26.3277 15.0652 26.1038 15.0853 25.8825 15.0616C25.6611 15.038 25.4466 14.971 25.2511 14.8645C25.0556 14.758 24.883 14.614 24.7432 14.4408C24.6034 14.2675 24.4991 14.0684 24.4363 13.8548C24.3735 13.6413 24.3533 13.4174 24.3771 13.1961L24.7372 9.82514C24.7607 9.60377 24.8277 9.38922 24.9342 9.19373C25.0407 8.99825 25.1847 8.82568 25.358 8.68587C25.5312 8.54607 25.7303 8.44177 25.9439 8.37895C26.1575 8.31613 26.3813 8.296 26.6027 8.31973C26.8241 8.3433 27.0386 8.41025 27.2341 8.51678C27.4296 8.6233 27.6021 8.7673 27.742 8.94054C27.8818 9.11379 27.9861 9.31289 28.0489 9.52646C28.1117 9.74003 28.1318 9.96389 28.1081 10.1852L27.748 13.5562ZM20.6461 16.2069C20.8674 16.2304 21.082 16.2973 21.2775 16.4038C21.473 16.5104 21.6456 16.6543 21.7854 16.8276C21.9252 17.0009 22.0295 17.2 22.0923 17.4136C22.1551 17.6272 22.1752 17.851 22.1515 18.0724C22.1279 18.2938 22.061 18.5084 21.9545 18.7039C21.848 18.8994 21.704 19.0719 21.5307 19.2118C21.3575 19.3516 21.1584 19.4559 20.9448 19.5187C20.7312 19.5815 20.5073 19.6016 20.286 19.5778L16.915 19.2177C16.6936 19.1942 16.4791 19.1272 16.2836 19.0207C16.0881 18.9142 15.9155 18.7702 15.7757 18.597C15.6358 18.4237 15.5316 18.2246 15.4688 18.011C15.4059 17.7974 15.3859 17.5735 15.4096 17.3522C15.4331 17.1308 15.5001 16.9162 15.6066 16.7207C15.7131 16.5252 15.8571 16.3526 16.0304 16.2128C16.2036 16.073 16.4027 15.9687 16.6163 15.9059C16.8299 15.8431 17.0538 15.823 17.2751 15.8468L20.6461 16.2069ZM77.4926 90.4686C77.5403 90.0216 77.7637 89.6118 78.1136 89.3295C78.4634 89.0472 78.9111 88.9154 79.3581 88.9632C79.5795 88.9867 79.794 89.0537 79.9895 89.1602C80.185 89.2667 80.3576 89.4107 80.4974 89.584C80.6372 89.7572 80.7415 89.9563 80.8043 90.1699C80.8671 90.3835 80.8872 90.6073 80.8635 90.8287L80.5034 94.1996C80.4557 94.6466 80.2323 95.0564 79.8824 95.3387C79.5326 95.621 79.0849 95.7528 78.6379 95.705C78.4165 95.6815 78.202 95.6145 78.0065 95.508C77.811 95.4015 77.6384 95.2575 77.4986 95.0842C77.3588 94.911 77.2545 94.7119 77.1917 94.4983C77.1289 94.2847 77.1088 94.0609 77.1325 93.8395L77.4926 90.4686ZM84.5945 87.8179C84.3731 87.7943 84.1586 87.7274 83.9631 87.6209C83.7676 87.5144 83.595 87.3704 83.4552 87.1971C83.3153 87.0239 83.211 86.8248 83.1482 86.6112C83.0854 86.3976 83.0653 86.1737 83.0891 85.9524C83.1126 85.731 83.1796 85.5164 83.2861 85.3209C83.3926 85.1254 83.5366 84.9528 83.7098 84.813C83.8831 84.6732 84.0822 84.5689 84.2958 84.5061C84.5094 84.4433 84.7333 84.4232 84.9546 84.447L88.3255 84.8071C88.5469 84.8306 88.7615 84.8975 88.957 85.004C89.1525 85.1105 89.3251 85.2545 89.4649 85.4278C89.6047 85.601 89.709 85.8002 89.7718 86.0137C89.8346 86.2273 89.8547 86.4512 89.831 86.6726C89.8074 86.894 89.7405 87.1085 89.634 87.304C89.5275 87.4995 89.3835 87.6721 89.2102 87.8119C89.037 87.9517 88.8379 88.056 88.6243 88.1188C88.4107 88.1817 88.1868 88.2017 87.9654 88.178L84.5945 87.8179ZM87.7705 42.1295L70.9156 40.3289C70.6221 40.2976 70.3417 40.1902 70.1024 40.0173C69.8631 39.8444 69.673 39.612 69.551 39.3432C69.4294 39.0741 69.3801 38.778 69.408 38.4841C69.4359 38.1901 69.5401 37.9086 69.7101 37.6672L79.7582 23.398C80.4649 22.3915 82.2262 22.5796 82.7046 23.7128L89.5118 39.7825C89.627 40.0544 89.6693 40.3516 89.6345 40.6448C89.5996 40.938 89.4889 41.217 89.3132 41.4543C89.137 41.6913 88.902 41.8782 88.6315 41.9966C88.3609 42.115 88.0642 42.1608 87.7705 42.1295ZM74.1398 37.264L85.2666 38.4526L80.7727 27.8448L74.1398 37.264ZM54.0607 38.5284L37.2058 36.7278C36.9122 36.6965 36.6319 36.5891 36.3926 36.4162C36.1533 36.2433 35.9632 36.011 35.8412 35.7421C35.7196 35.473 35.6703 35.1769 35.6982 34.883C35.7261 34.589 35.8302 34.3075 36.0003 34.0661L46.0481 19.7969C46.7548 18.7903 48.5161 18.9785 48.9945 20.1117L55.8013 36.1814C55.9165 36.4532 55.9588 36.7504 55.924 37.0436C55.8892 37.3368 55.7785 37.6158 55.6028 37.8531C55.4268 38.0902 55.1919 38.2771 54.9214 38.3956C54.651 38.514 54.3543 38.5598 54.0607 38.5284ZM40.43 33.6629L51.5568 34.8515L47.0632 24.2438L40.43 33.6629Z" fill="#23FF00"/>
<path d="M70.9156 40.3289L54.0607 38.5284C53.7672 38.4971 53.4868 38.3896 53.2475 38.2168C53.0082 38.0439 52.8181 37.8115 52.6961 37.5426C52.5745 37.2736 52.5253 36.9774 52.5532 36.6835C52.5811 36.3896 52.6852 36.108 52.8552 35.8666L62.903 21.5975C63.6097 20.5909 65.371 20.779 65.8494 21.9122L72.6562 37.9819C72.7715 38.2537 72.8138 38.551 72.7789 38.8442C72.7441 39.1373 72.6334 39.4164 72.4577 39.6537C72.2817 39.8907 72.0468 40.0777 71.7764 40.1961C71.5059 40.3146 71.2092 40.3603 70.9156 40.3289ZM57.2849 35.4634L68.4117 36.6521L63.9178 26.0443L57.2849 35.4634ZM49.2008 84.0369C48.9371 84.0092 48.6835 83.9199 48.4606 83.7762C48.2377 83.6325 48.0517 83.4385 47.9175 83.2097L19.0692 34.1003C18.9102 33.8295 18.8296 33.52 18.8362 33.2061C18.8428 32.8922 18.9365 32.5864 19.1067 32.3226C19.2769 32.0588 19.5171 31.8474 19.8003 31.7121C20.0836 31.5768 20.3989 31.5228 20.7111 31.5561L37.566 33.3566C37.9102 33.3935 38.2349 33.5348 38.4964 33.7617C38.7579 33.9886 38.9436 34.2901 39.0286 34.6257L51.0221 81.9345C51.1225 82.3302 51.0768 82.7488 50.8931 83.1134C50.7095 83.4779 50.4004 83.7639 50.0227 83.9187C49.7545 84.0295 49.4724 84.0659 49.2008 84.0369ZM23.6971 35.2848L44.8107 71.2269L36.0323 36.6025L23.6971 35.2848Z" fill="#23FF00"/>
<path d="M49.1977 84.0366C48.8537 83.9994 48.5294 83.8579 48.2682 83.6311C48.0071 83.4043 47.8215 83.103 47.7366 82.7677L35.7431 35.4588C35.6756 35.1939 35.6733 34.9166 35.7364 34.6507C35.7996 34.3848 35.9264 34.1381 36.1059 33.9319C36.2847 33.7254 36.5109 33.5653 36.7651 33.4651C37.0193 33.365 37.2939 33.3279 37.5656 33.3569L54.4208 35.1575C54.6422 35.181 54.8567 35.248 55.0522 35.3545C55.2477 35.461 55.4203 35.605 55.5601 35.7783C55.6999 35.9515 55.8042 36.1506 55.867 36.3642C55.9298 36.5778 55.9499 36.8016 55.9262 37.023L51.0647 82.5313C51.0411 82.7528 50.9741 82.9675 50.8674 83.163C50.7608 83.3586 50.6166 83.5312 50.4432 83.671C50.2698 83.8108 50.0706 83.915 49.8568 83.9778C49.6431 84.0405 49.4191 84.0605 49.1977 84.0366ZM39.6272 36.9865L48.6984 72.7677L52.3752 38.3483L39.6272 36.9865Z" fill="#23FF00"/>
<path d="M49.2008 84.0369C48.9793 84.0135 48.7646 83.9466 48.5689 83.8402C48.3733 83.7337 48.2005 83.5897 48.0606 83.4164C47.9206 83.2432 47.8162 83.044 47.7532 82.8303C47.6903 82.6167 47.6701 82.3927 47.6938 82.1712L52.5553 36.6629C52.5789 36.4415 52.6458 36.2269 52.7523 36.0315C52.8589 35.836 53.0029 35.6634 53.1761 35.5236C53.3494 35.3838 53.5485 35.2795 53.762 35.2167C53.9756 35.1539 54.1995 35.1337 54.4208 35.1575L71.2757 36.958C71.8271 37.0169 72.3152 37.3422 72.581 37.8284C72.7129 38.0679 72.7848 38.3357 72.7904 38.609C72.796 38.8823 72.7353 39.1528 72.6134 39.3975L50.897 83.1053C50.7431 83.4152 50.4982 83.6705 50.195 83.837C49.8917 84.0036 49.5448 84.0733 49.2008 84.0369ZM55.7462 38.7084L52.0693 73.1278L68.4943 40.0703L55.7462 38.7084Z" fill="#23FF00"/>
<path d="M49.1977 84.0366C48.926 84.0075 48.6583 83.9124 48.4196 83.7478C48.0831 83.5167 47.8414 83.1719 47.7389 82.7767C47.6364 82.3816 47.6801 81.9628 47.8619 81.5973L69.5783 37.8895C69.7323 37.5794 69.9776 37.324 70.2811 37.1575C70.5846 36.9909 70.9318 36.9213 71.276 36.958L88.1309 38.7586C88.4431 38.792 88.7399 38.9114 88.9882 39.1035C89.2365 39.2956 89.4265 39.5529 89.5372 39.8467C89.6479 40.1405 89.6748 40.4593 89.615 40.7674C89.5551 41.0756 89.4109 41.3612 89.1983 41.5922L82.9683 48.3608C82.8175 48.5247 82.6359 48.6573 82.4339 48.7511C82.2318 48.8448 82.0133 48.8978 81.7908 48.907C81.5682 48.9163 81.3461 48.8816 81.137 48.8049C80.9278 48.7283 80.7359 48.6112 80.572 48.4603C80.2418 48.1555 80.0459 47.7322 80.0274 47.2831C80.0089 46.8341 80.1693 46.396 80.4733 46.0651L84.4246 41.7727L72.0894 40.455L56.1947 72.4437L75.8814 51.0543C76.1866 50.7243 76.61 50.5286 77.059 50.51C77.508 50.4913 77.9462 50.6512 78.2777 50.9548C78.6079 51.2596 78.8038 51.6829 78.8223 52.132C78.8408 52.581 78.6804 53.019 78.3764 53.35L50.6267 83.4997C50.447 83.6947 50.2241 83.8448 49.976 83.938C49.7278 84.0312 49.4612 84.065 49.1977 84.0366Z" fill="#23FF00"/>
<path d="M87.7706 42.1295L20.3509 34.9273C20.0573 34.896 19.777 34.7886 19.5377 34.6157C19.2984 34.4428 19.1083 34.2104 18.9863 33.9415C18.8647 33.6725 18.8154 33.3764 18.8433 33.0824C18.8712 32.7885 18.9754 32.5069 19.1454 32.2656L21.6084 28.7679C21.8673 28.4005 22.2614 28.151 22.7042 28.0742C23.147 27.9974 23.6022 28.0995 23.9697 28.3582C24.1519 28.4862 24.307 28.6489 24.4263 28.837C24.5455 29.025 24.6265 29.2347 24.6646 29.4541C24.7028 29.6735 24.6972 29.8983 24.6484 30.1155C24.5995 30.3327 24.5083 30.5382 24.3799 30.7202L23.5754 31.8621L85.267 38.4523L79.9713 25.9534L31.3897 20.7636L28.2909 25.1646C28.0318 25.5316 27.6377 25.7809 27.195 25.8577C26.7523 25.9345 26.2972 25.8326 25.9296 25.5742C25.7474 25.4462 25.5922 25.2836 25.473 25.0955C25.3537 24.9075 25.2727 24.6977 25.2346 24.4783C25.1965 24.259 25.2021 24.0342 25.2509 23.817C25.2998 23.5997 25.391 23.3942 25.5194 23.2123L29.1929 17.996C29.367 17.749 29.6039 17.553 29.8792 17.4283C30.1544 17.3036 30.4581 17.2548 30.7585 17.2868L81.3233 22.6885C81.6238 22.7204 81.9103 22.8322 82.1531 23.0122C82.3958 23.1923 82.586 23.434 82.7037 23.7124L89.5109 39.7821C89.6262 40.0539 89.6686 40.3511 89.6338 40.6443C89.5989 40.9375 89.4881 41.2165 89.3123 41.4537C89.1364 41.6909 88.9017 41.878 88.6313 41.9965C88.3608 42.1151 88.0641 42.1609 87.7706 42.1295Z" fill="#23FF00"/>
<path d="M37.2058 36.7278L20.3509 34.9273C20.0574 34.896 19.777 34.7886 19.5377 34.6157C19.2984 34.4428 19.1083 34.2104 18.9863 33.9415C18.8647 33.6725 18.8154 33.3764 18.8433 33.0824C18.8712 32.7885 18.9754 32.5069 19.1454 32.2656L21.6084 28.7679C21.8673 28.4005 22.2614 28.151 22.7042 28.0742C23.147 27.9974 23.6022 28.0995 23.9697 28.3582C24.1519 28.4862 24.307 28.6489 24.4263 28.837C24.5456 29.025 24.6265 29.2347 24.6647 29.4541C24.7028 29.6735 24.6972 29.8983 24.6484 30.1155C24.5995 30.3327 24.5083 30.5382 24.3799 30.7202L23.5754 31.8621L34.7023 33.0507L30.208 22.4432L28.2908 25.1652C28.0317 25.5323 27.6376 25.7816 27.1949 25.8584C26.7522 25.9352 26.2972 25.8332 25.9296 25.5749C25.7474 25.4469 25.5922 25.2842 25.4729 25.0961C25.3537 24.9081 25.2727 24.6984 25.2346 24.479C25.1965 24.2596 25.202 24.0348 25.2509 23.8176C25.2997 23.6003 25.391 23.3949 25.5193 23.2129L29.1929 17.9966C29.3669 17.7496 29.6038 17.5536 29.8791 17.4289C30.1544 17.3042 30.458 17.2554 30.7585 17.2875C31.059 17.3194 31.3456 17.4311 31.5883 17.6112C31.8311 17.7912 32.0212 18.033 32.139 18.3114L38.9458 34.3811C39.061 34.6529 39.1033 34.9501 39.0685 35.2433C39.0336 35.5365 38.9229 35.8155 38.7472 36.0528C38.5713 36.2898 38.3365 36.4767 38.0662 36.5951C37.7959 36.7135 37.4993 36.7593 37.2058 36.7278Z" fill="#23FF00"/>
</g>
<defs>
<clipPath id="clip0_75_497">
<rect width="94.5195" height="94.5195" fill="white" transform="translate(10.6479) rotate(6.09756)"/>
</clipPath>
</defs>
</svg>
