<svg width="227" height="243" viewBox="0 0 227 243" fill="none" xmlns="http://www.w3.org/2000/svg">
<path d="M159.074 0C178.205 2.12222 196.648 4.98348 215.318 9.85881C206.556 20.5362 197.275 30.4454 187.583 40.2512C186.012 41.8494 184.44 43.4477 182.82 45.0944C177.662 50.3372 172.497 55.5731 167.332 60.8088C163.739 64.4579 160.147 68.1074 156.555 71.7573C148.09 80.3571 139.62 88.9519 131.148 97.5448C121.497 107.335 111.85 117.132 102.204 126.929C82.3784 147.064 62.5455 167.193 42.7079 187.317C27.9288 180.27 20.7691 162.891 15.3967 147.867C7.72566 119.033 12.7863 88.2805 26.7076 62.6034C41.2438 39.627 63.1213 24.9427 88.7469 17.0758C110.869 12.5238 130.419 15.512 151.316 23.6611C147.222 32.7292 141.96 39.6171 133.862 45.3505C127.461 47.0354 121.409 46.9076 114.831 46.7061C91.1846 47.0197 77.8017 51.5979 60.4129 68.5572C43.8231 86.2282 41.9097 103.013 42.314 126.147C42.5453 132.86 43.3774 139.309 44.6474 145.91C59.4032 133.439 72.7607 119.552 86.2847 105.743C88.7841 103.199 91.2839 100.654 93.7841 98.1105C100.318 91.4602 106.846 84.8039 113.373 78.1463C120.053 71.3353 126.738 64.53 133.422 57.7241C146.504 44.4035 159.579 31.0767 172.65 17.7459C171.424 16.3199 171.424 16.3199 170.173 14.8652C169.11 13.6198 168.048 12.3743 166.953 11.0912C165.896 9.85588 164.838 8.6206 163.749 7.34789C161.014 3.94352 161.014 3.94352 159.074 0Z" fill="#FFBC0E"/>
<path d="M188.165 51.2657C206.963 69.7137 215.493 93.5409 216.045 119.661C215.97 146.891 205.971 173.052 187.438 192.986C166.292 212.539 143.245 221.666 114.83 221.823C113.141 221.836 111.452 221.848 109.711 221.861C98.1237 221.63 88.3749 219.259 77.6174 214.922C85.9509 204.909 85.9509 204.909 89.254 201.12C90.3666 199.684 91.4791 198.248 92.6253 196.768C98.6612 191.903 104.068 192.318 111.436 192.37C131.995 191.745 150.513 186.212 165.582 171.312C170.798 165.24 174.844 158.986 178.468 151.826C179.628 149.548 180.788 147.271 181.983 144.924C184.821 136.728 184.835 128.386 184.893 119.784C184.903 118.408 184.914 117.032 184.925 115.614C184.822 108.145 183.937 103.105 180.408 96.6163C164.162 112.905 147.942 129.219 131.756 145.568C124.24 153.158 116.714 160.739 109.169 168.299C101.892 175.59 94.6386 182.905 87.4014 190.237C84.6314 193.035 81.8528 195.824 79.0658 198.605C75.1737 202.491 71.3126 206.406 67.4576 210.33C66.29 211.481 65.1224 212.633 63.9194 213.819C60.3842 217.342 60.3842 217.342 56.2836 222.809C57.1083 228.997 59.1532 232.471 63.1928 237.104C64.7529 238.894 66.3129 240.683 67.9202 242.527C55.0692 241.264 42.6161 239.156 29.98 236.488C28.2087 236.121 26.4374 235.754 24.6124 235.375C20.299 234.48 15.9874 233.576 11.6765 232.668C20.5418 221.856 29.9575 211.84 39.7671 201.913C42.1815 199.458 42.1815 199.458 44.6447 196.954C49.9288 191.583 55.2198 186.219 60.511 180.855C64.1908 177.118 67.8702 173.38 71.5491 169.641C80.22 160.832 88.8959 152.028 97.5735 143.225C107.46 133.196 117.341 123.162 127.221 113.126C147.53 92.5 167.845 71.8805 188.165 51.2657Z" fill="#FFBC0E"/>
<path d="M0.0399496 171.543C9.09066 180.745 18.1414 189.946 27.1921 199.148C24.2163 206.356 19.9195 210.953 14.4645 216.401C12.902 217.977 11.3394 219.553 9.72956 221.176C5.85826 224.781 5.85826 224.781 3.91883 224.781C3.26203 218.867 2.61736 212.951 1.97939 207.035C1.79438 205.38 1.60938 203.726 1.41877 202.021C0.326697 191.791 -0.147484 181.833 0.0399496 171.543Z" fill="#FFBC0E"/>
<path d="M223.075 17.7458C223.731 24.0709 224.374 30.3973 225.015 36.724C225.2 38.5058 225.385 40.2875 225.575 42.1233C226.48 51.129 227.191 59.9438 226.954 69.0116C217.413 60.8955 208.478 52.4407 199.802 43.3787C202.778 36.1706 207.074 31.5738 212.529 26.1258C214.092 24.5499 215.654 22.9741 217.264 21.3504C221.136 17.7458 221.136 17.7458 223.075 17.7458Z" fill="#FFBC0E"/>
</svg>
