<svg width="338" height="88" viewBox="0 0 338 88" fill="none" xmlns="http://www.w3.org/2000/svg">
<path d="M257.673 12.7994C258.77 12.8688 259.868 12.9412 260.965 13.0148C261.882 13.0747 261.882 13.0747 262.818 13.1359C264.454 13.2917 264.454 13.2917 266.018 13.7839C266.482 14.7899 266.482 14.7899 266.86 16.1261C267.004 16.622 267.147 17.1178 267.295 17.6287C267.519 18.4365 267.519 18.4365 267.746 19.2606C267.983 20.0865 267.983 20.0865 268.224 20.929C268.713 22.6479 269.193 24.3691 269.67 26.091C269.818 26.6206 269.965 27.1502 270.118 27.6958C270.782 30.0758 271.44 32.4571 272.09 34.8406C272.82 37.5105 273.589 40.1702 274.364 42.8287C275.5 36.0714 276.439 29.2984 277.307 22.5066C277.35 22.1724 277.393 21.8381 277.438 21.4938C277.556 20.5771 277.673 19.6602 277.789 18.7433C278.015 17.2299 278.015 17.2299 278.537 15.2608C281.463 15.5857 284.389 15.9106 287.404 16.2454C287.404 18.968 287.317 21.2117 286.889 23.8488C286.835 24.1851 286.782 24.5213 286.726 24.8677C286.612 25.5828 286.496 26.2977 286.379 27.0124C286.132 28.525 285.892 30.0386 285.651 31.5521C285.531 32.3075 285.411 33.0629 285.29 33.8182C284.845 36.6038 284.416 39.391 284.014 42.1826C283.957 42.5772 283.9 42.9718 283.841 43.3784C283.402 46.4654 282.989 49.5554 282.575 52.6455C282.457 53.5287 282.338 54.4119 282.22 55.295C281.983 57.0593 281.749 58.824 281.517 60.5888C281.408 61.4043 281.299 62.2199 281.19 63.0354C281.14 63.4159 281.091 63.7964 281.04 64.1884C280.683 66.8388 280.683 66.8388 280.102 67.9352C276.487 67.6915 276.487 67.6915 272.799 67.4429C271.396 63.5367 270.087 59.6036 268.78 55.6682C268.401 54.5298 268.022 53.3915 267.643 52.2532C266.217 47.9674 264.804 43.6782 263.41 39.3827C263.083 41.6696 262.757 43.9567 262.432 46.2439C262.385 46.5811 262.337 46.9182 262.287 47.2656C261.643 51.8126 261.025 56.3607 260.487 60.9201C260.291 62.444 260.027 63.9596 259.759 65.4738C256.833 65.1488 253.907 64.8239 250.892 64.4892C250.746 60.5563 251.239 56.8185 251.887 52.9432C252.197 51.0877 252.493 49.2302 252.789 47.3727C252.85 46.993 252.91 46.6133 252.973 46.2221C253.575 42.4217 254.084 38.6126 254.576 34.7983C255.525 27.4534 256.578 20.1261 257.673 12.7994Z" fill="#FFBC0E"/>
<path d="M80.3271 12.7994C79.5133 15.2648 78.4674 17.585 77.3564 19.9394C76.9793 20.7486 76.6024 21.5578 76.2256 22.3672C75.6348 23.6331 75.0425 24.8983 74.4466 26.1621C73.8691 27.3885 73.2977 28.6173 72.7272 29.8466C72.5479 30.2231 72.3686 30.5995 72.1839 30.9874C72.0202 31.3423 71.8565 31.6973 71.6878 32.063C71.4701 32.5268 71.4701 32.5268 71.2481 33C70.7168 34.6594 70.674 35.9161 71.4844 37.4889C71.7406 37.8416 71.9967 38.1944 72.2606 38.5579C72.55 38.9624 72.8394 39.367 73.1375 39.7838C73.6142 40.4315 73.6142 40.4315 74.1005 41.0922C74.4263 41.5446 74.7522 41.997 75.0879 42.463C76.1332 43.9116 77.1868 45.3547 78.2407 46.7977C78.9347 47.756 79.6282 48.7146 80.321 49.6736C81.6455 51.5057 82.9728 53.336 84.3023 55.1649C86.3083 57.9277 88.2838 60.7087 90.2376 63.5046C88.6449 64.5068 87.7518 64.7387 85.9018 65.043C85.4197 65.1255 84.9376 65.208 84.4409 65.293C82.8286 65.4865 81.428 65.6171 79.8055 65.4738C78.8628 64.6273 78.8628 64.6273 78.0716 63.4219C77.7661 62.9718 77.4606 62.5216 77.1458 62.0578C76.8186 61.5605 76.4914 61.0633 76.1543 60.5509C75.4033 59.4849 74.65 58.4202 73.8947 57.3568C73.3107 56.521 72.7289 55.6838 72.1476 54.8463C71.5515 53.9885 70.952 53.1329 70.3525 52.2773C69.9682 51.7245 69.5841 51.1717 69.2002 50.6187C68.8575 50.1267 68.5147 49.6347 68.1615 49.1278C67.3625 47.8703 66.77 46.6663 66.2438 45.2901C65.8995 45.2901 65.5553 45.2901 65.2006 45.2901C63.5469 49.0945 64.0663 52.4946 64.899 56.4184C65.557 60.0644 65.864 63.7633 66.2438 67.4429C64.5967 68.2201 62.8069 68.1418 60.9952 68.2429C60.6062 68.2682 60.2172 68.2936 59.8165 68.3198C58.8304 68.3772 57.8425 68.4048 56.8549 68.4275C55.8778 67.5053 56.0225 65.9619 55.8626 64.7219C55.8195 64.3955 55.7765 64.0692 55.732 63.7329C55.5935 62.6827 55.4578 61.6323 55.3227 60.5817C54.8192 56.6737 54.3187 52.7924 53.447 48.9389C52.8645 46.0965 52.5876 43.203 52.2359 40.3288C51.8921 37.6076 51.4501 34.9463 50.8539 32.2648C50.373 29.9352 50.0675 27.5829 49.7481 25.2295C49.6781 24.7365 49.6082 24.2434 49.5362 23.7354C49.2133 21.3879 48.9368 19.1109 49.0308 16.7376C51.3656 16.4112 53.6007 16.2152 55.9625 16.23C56.4248 16.2322 56.8872 16.2344 57.3635 16.2367C57.7121 16.2396 58.0606 16.2424 58.4197 16.2454C58.7588 18.1219 59.0948 19.9988 59.4303 21.8759C59.5255 22.4023 59.6206 22.9286 59.7187 23.471C60.2537 26.4733 60.7071 29.4612 61.0278 32.4907C63.673 27.5603 66.237 22.5988 68.7273 17.5969C68.9398 17.1718 69.1524 16.7468 69.3714 16.3088C69.5606 15.9284 69.7499 15.548 69.9448 15.1561C70.4166 14.2762 70.4166 14.2762 70.9383 13.7839C72.319 13.5862 73.6921 13.4136 75.0785 13.2609C75.4654 13.2162 75.8524 13.1714 76.2511 13.1253C79.1152 12.7994 79.1152 12.7994 80.3271 12.7994Z" fill="#FFBC0E"/>
<path d="M210.565 8.70727C211.48 9.26301 211.48 9.26301 212.293 9.84568C212.831 10.1909 213.369 10.5361 213.923 10.8918C216.343 12.8942 218.066 15.8527 219.074 18.7068C219.117 19.5438 219.13 20.3822 219.125 21.2201C219.123 21.704 219.122 22.1879 219.12 22.6864C219.113 23.4427 219.113 23.4427 219.107 24.2142C219.104 24.7241 219.102 25.234 219.099 25.7593C219.093 27.0186 219.084 28.2778 219.074 29.537C215.976 29.537 212.877 29.537 209.685 29.537C209.49 25.5065 209.49 25.5065 209.436 24.2504C209.299 21.7984 209.066 19.7425 207.305 17.8145C205.338 16.91 203.481 16.8337 201.339 17.2299C199.902 18.3039 199.026 19.1359 198.21 20.6759C197.899 23.6093 198.458 25.7107 200.296 28.0602C201.965 29.3314 203.774 30.3043 205.643 31.2908C216.223 37.014 216.223 37.014 218.031 42.3364C218.76 47.4823 217.796 51.9188 214.836 56.2742C210.668 59.9517 206.784 61.2255 201.158 61.1817C197.071 60.8846 193.754 59.3619 190.907 56.6127C188.146 53.1068 187.084 49.9345 187.191 45.5978C187.212 44.3591 187.234 43.1204 187.256 41.8441C190.354 41.8441 193.453 41.8441 196.645 41.8441C196.73 43.4306 196.815 45.0171 196.9 46.6035C197.183 48.3455 197.62 49.3027 198.731 50.7052C200.657 51.917 202.233 52.0278 204.469 51.6898C206.265 50.6581 207.467 49.6584 208.12 47.7515C208.355 46.0158 208.34 45.1283 207.346 43.6344C205.62 41.927 203.694 40.914 201.535 39.7519C195.553 36.3997 190.696 33.176 188.507 26.6295C187.664 22.4463 187.932 18.3836 190.386 14.7685C194.945 8.58258 202.859 5.30209 210.565 8.70727Z" fill="#FFBC0E"/>
<path d="M37.7286 22.2624C42.1204 25.0236 44.1569 28.145 45.2165 33.0446C45.3476 33.6347 45.4788 34.2249 45.6138 34.8329C45.9011 36.429 45.9011 36.429 45.9011 38.3981C44.8262 38.6477 43.7502 38.893 42.6737 39.1366C42.0746 39.2736 41.4755 39.4107 40.8583 39.5519C39.3455 39.8331 38.0453 39.9404 36.5122 39.875C36.3542 39.2525 36.1962 38.6299 36.0334 37.9885C35.8132 37.1712 35.5925 36.3539 35.3712 35.5367C35.2687 35.1265 35.1662 34.7162 35.0605 34.2935C34.3992 31.8455 34.3992 31.8455 32.6389 30.0082C30.7143 29.3329 29.1428 29.1135 27.1234 29.537C25.7197 30.6081 24.7994 31.4622 23.9937 32.983C23.7839 35.5574 24.0309 37.22 25.5585 39.3827C27.7654 40.9609 29.8706 41.8318 32.5024 42.6133C32.8471 42.7184 33.1918 42.8235 33.5469 42.9317C34.9923 43.3712 36.4416 43.7939 37.8998 44.194C43.0506 45.6515 46.6859 48.3494 49.4546 52.6744C50.9029 56.2173 50.5975 60.6583 49.259 64.1815C47.2885 68.1489 44.4952 70.7927 40.1635 72.3657C36.6771 73.4625 31.2168 73.5611 27.8732 72.0581C26.9481 71.5062 26.9481 71.5062 26.0801 70.8889C25.7614 70.6801 25.4427 70.4713 25.1144 70.2562C21.5235 67.6676 19.7805 64.1981 18.9142 60.0798C18.7777 59.0741 18.7777 59.0741 18.7777 57.1049C19.8526 56.8554 20.9286 56.6101 22.0051 56.3665C22.6042 56.2294 23.2033 56.0924 23.8205 55.9511C25.3333 55.6699 26.6335 55.5627 28.1666 55.6281C28.293 56.0729 28.4194 56.5178 28.5496 56.9761C28.7244 57.5567 28.8993 58.1374 29.0794 58.7356C29.2488 59.3125 29.4183 59.8893 29.5928 60.4836C30.2964 62.1293 30.6923 62.6947 32.3394 63.5046C34.7437 63.9917 36.5323 63.8103 38.5987 62.5508C39.8952 60.6772 40.6283 58.8601 40.1635 56.6126C37.9887 53.6088 34.4344 53.0035 30.905 51.9667C24.0529 49.9486 19.0645 47.7909 15.5156 41.7076C13.6353 37.8924 13.238 33.9283 14.6415 29.9062C16.7806 25.4935 19.9241 22.3067 24.7558 20.5125C29.5132 19.3312 33.4852 20.0139 37.7286 22.2624Z" fill="#FFBC0E"/>
<path d="M314.365 20.5221C315.278 21.074 315.278 21.074 316.093 21.6605C316.641 22.026 317.19 22.3915 317.755 22.7681C321.059 25.8168 322.894 29.2441 323.004 33.6292C322.96 36.1593 322.509 38.4161 321.83 40.8596C320.559 40.7075 319.287 40.5534 318.016 40.3981C317.656 40.3552 317.296 40.3124 316.925 40.2683C315.362 40.0758 313.941 39.8546 312.441 39.3827C312.497 38.955 312.553 38.5273 312.61 38.0866C313.215 33.8164 313.215 33.8164 311.398 30.0293C309.871 28.8553 308.102 28.7968 306.162 28.8717C305.007 29.0081 305.007 29.0081 303.672 29.8755C302.549 31.4802 302.223 32.4187 301.797 34.2618C301.598 35.1178 301.598 35.1178 301.395 35.9912C301.254 36.623 301.112 37.2549 300.966 37.9059C300.89 38.2414 300.814 38.5769 300.736 38.9226C300.241 41.1149 299.76 43.3097 299.288 45.5067C299.124 46.2687 298.957 47.0304 298.789 47.7917C296.95 54.471 296.95 54.471 298.032 61.0124C298.87 62.0577 298.87 62.0577 299.923 63.0123C302.236 63.2306 303.621 63.1846 305.791 62.397C307.96 60.3498 308.532 57.887 309.312 55.1358C312.572 55.3473 315.593 55.635 318.701 56.6127C317.937 62.2666 316.284 66.4004 311.541 70.0889C307.743 72.651 303.379 73.3938 298.794 72.683C294.797 71.69 291.492 69.0782 289.238 65.8372C285.307 58.5649 287.713 49.7881 289.432 42.2077C289.786 40.637 290.116 39.063 290.445 37.4876C291.873 30.904 293.258 25.2843 299.405 21.2278C303.474 19.0668 310.023 18.553 314.365 20.5221Z" fill="#FFBC0E"/>
<path d="M221.682 9.35339C224.78 9.51585 227.879 9.6783 231.071 9.84568C231.906 12.2106 232.475 14.4186 232.901 16.8569C232.969 17.2351 233.037 17.6134 233.107 18.0031C233.322 19.2014 233.533 20.4001 233.744 21.599C233.89 22.4156 234.036 23.2322 234.182 24.0488C234.539 26.0419 234.892 28.0355 235.244 30.0293C235.462 29.4801 235.681 28.9309 235.906 28.3651C236.714 26.3343 237.524 24.3042 238.335 22.2743C238.686 21.3944 239.037 20.5143 239.387 19.634C239.889 18.3713 240.393 17.1093 240.898 15.8473C241.055 15.4514 241.212 15.0556 241.374 14.6477C242.487 11.8709 242.487 11.8709 243.068 11.3225C246.215 11.0971 249.338 11.4411 252.457 11.8148C251.413 14.9926 250.124 17.9929 248.645 21.0105C248.432 21.4503 248.219 21.8901 248 22.3433C247.325 23.7371 246.648 25.1296 245.969 26.5218C244.458 29.6241 242.954 32.7286 241.487 35.8494C241.075 36.7221 240.657 37.5918 240.236 38.4605C238.419 42.5736 238.319 46.9564 238.015 51.3514C237.925 52.5489 237.832 53.7462 237.738 54.9434C237.681 55.6824 237.626 56.4215 237.574 57.1609C237.43 59.1374 237.191 61.0641 236.809 63.0123C235.537 62.943 234.266 62.8708 232.994 62.797C232.634 62.7776 232.274 62.7583 231.903 62.7383C230.303 62.6435 228.948 62.5086 227.42 62.0278C227.324 59.2731 227.452 56.6221 227.794 53.8892C228.97 44.4423 228.315 36.645 225.813 27.3972C225.024 24.4406 224.292 21.4716 223.559 18.5022C223.316 17.5213 223.069 16.5412 222.822 15.5611C222.673 14.9652 222.524 14.3692 222.371 13.7551C222.171 12.9608 222.171 12.9608 221.968 12.1505C221.682 10.8302 221.682 10.8302 221.682 9.35339Z" fill="#FFBC0E"/>
<path d="M140.354 7.80924C140.771 7.81114 141.187 7.81305 141.616 7.81501C142.032 7.81311 142.448 7.8112 142.877 7.80924C145.983 7.81422 145.983 7.81422 146.571 8.36883C146.65 9.15081 146.695 9.93596 146.726 10.721C146.747 11.2257 146.768 11.7304 146.789 12.2503C146.819 13.0809 146.819 13.0809 146.85 13.9282C146.873 14.5002 146.895 15.0723 146.918 15.6617C146.99 17.5279 147.058 19.3942 147.125 21.2605C147.149 21.8882 147.172 22.5159 147.196 23.1626C147.537 32.3468 147.78 41.5153 147.614 50.7052C148.569 50.6519 148.569 50.6519 149.544 50.5976C160.527 50.0047 160.527 50.0047 164.306 50.213C164.827 50.7052 164.827 50.7052 164.886 51.5746C164.884 51.9432 164.881 52.3119 164.878 52.6917C164.876 53.0899 164.875 53.4881 164.873 53.8984C164.866 54.5261 164.866 54.5261 164.86 55.1666C164.857 55.587 164.855 56.0074 164.853 56.4405C164.846 57.4825 164.837 58.5244 164.827 59.5664C159.222 60.1651 153.636 60.115 148.005 60.0894C147.054 60.0869 146.102 60.0847 145.151 60.0827C142.842 60.0773 140.534 60.0688 138.225 60.0586C138.02 54.4095 137.816 48.7603 137.613 43.1111C137.519 40.4872 137.425 37.8633 137.329 35.2395C137.237 32.702 137.145 30.1644 137.055 27.6267C137.021 26.6642 136.986 25.7016 136.95 24.739C136.483 12.0223 136.483 12.0223 136.66 8.36883C137.644 7.44062 139.048 7.81133 140.354 7.80924Z" fill="#FFBC0E"/>
<path d="M113.71 9.84567C114.189 11.2032 114.357 12.2373 114.474 13.6509C114.514 14.1259 114.554 14.601 114.595 15.0904C114.637 15.6067 114.678 16.123 114.72 16.655C114.765 17.1928 114.809 17.7306 114.855 18.2847C114.997 20.0354 115.136 21.7863 115.275 23.5373C115.322 24.1276 115.369 24.7178 115.418 25.326C116.131 34.2763 116.699 43.2059 116.839 52.1821C117.426 52.1466 118.013 52.111 118.618 52.0744C123.772 51.7758 128.888 51.6251 134.052 51.6898C134.398 53.8933 134.606 56.0028 134.59 58.2318C134.588 58.6682 134.586 59.1045 134.583 59.5541C134.58 59.883 134.577 60.212 134.574 60.5509C131.876 60.7646 129.177 60.9748 126.478 61.1819C125.563 61.2526 124.648 61.3242 123.733 61.3968C122.406 61.5019 121.079 61.6036 119.751 61.7047C119.353 61.737 118.954 61.7693 118.543 61.8026C115.019 62.0655 111.506 62.0585 107.972 62.0278C107.942 61.6223 107.911 61.2168 107.88 60.799C107.59 56.9196 107.298 53.0402 107.006 49.1609C106.856 47.168 106.706 45.175 106.557 43.182C106.384 40.8746 106.211 38.5672 106.037 36.2598C105.994 35.6938 105.994 35.6938 105.95 35.1164C105.557 29.9118 105.137 24.7106 104.622 19.5152C104.332 16.4495 104.274 13.4151 104.321 10.338C107.462 10.0435 110.552 9.77944 113.71 9.84567Z" fill="#FFBC0E"/>
<path d="M95.9752 11.3225C97.3461 18.8508 98.2569 26.4037 99.1049 33.9984C99.3 35.7278 99.4959 37.4571 99.6921 39.1864C99.8216 40.3287 99.9507 41.471 100.079 42.6134C100.603 47.2407 101.167 51.8632 101.758 56.4833C101.82 56.9819 101.883 57.4805 101.947 57.9942C102.003 58.43 102.058 58.8658 102.116 59.3148C102.235 60.5547 102.255 61.7681 102.234 63.0123C99.9638 63.426 97.8298 63.5577 95.5188 63.5354C94.6172 63.5287 94.6172 63.5287 93.6973 63.5219C93.0175 63.5134 93.0175 63.5134 92.324 63.5046C91.5739 57.2015 90.8256 50.8981 90.0797 44.5945C89.7333 41.6674 89.3862 38.7405 89.0377 35.8137C88.7014 32.989 88.3668 30.1641 88.0333 27.3391C87.9058 26.2615 87.7777 25.184 87.6489 24.1065C87.4687 22.5971 87.2906 21.0874 87.113 19.5777C87.0594 19.1326 87.0057 18.6875 86.9505 18.2289C86.6997 16.078 86.5257 13.983 86.5863 11.8148C87.3684 11.7301 88.1509 11.6488 88.9336 11.5687C89.3693 11.523 89.805 11.4773 90.2539 11.4302C92.1673 11.2972 94.0565 11.316 95.9752 11.3225Z" fill="#FFBC0E"/>
</svg>
