<svg width="173" height="200" viewBox="0 0 173 200" fill="none" xmlns="http://www.w3.org/2000/svg">
<path d="M172.436 184.101C172.436 213.057 0.574219 213.057 0.574219 184.101C0.574219 155.146 68.3926 143.887 86.5053 143.887C104.618 143.887 172.436 155.146 172.436 184.101Z" fill="#CFE1FF"/>
<path d="M86.506 158.776C78.0969 158.776 71.2812 151.962 71.2812 143.558V108.888H101.731V143.558C101.731 151.963 94.9138 158.776 86.506 158.776Z" fill="#A0C4FF"/>
<path d="M101.726 134.652V121.381H71.2795V134.652C75.9825 136.564 81.1312 137.614 86.5101 137.614C91.8889 137.614 97.0233 136.564 101.726 134.652Z" fill="#80B1FF"/>
<path d="M86.5018 126.814C64.0917 126.814 45.9244 108.654 45.9244 86.2543V54.0585C45.9244 31.6584 64.0917 13.4991 86.5018 13.4991C108.912 13.4991 127.079 31.6584 127.079 54.0585V86.2543C127.079 108.654 108.912 126.814 86.5018 126.814Z" fill="#A0C4FF"/>
<path d="M41.8385 93.797C47.9681 93.797 52.9371 88.8302 52.9371 82.7033C52.9371 76.5764 47.9681 71.6096 41.8385 71.6096C35.7089 71.6096 30.7399 76.5764 30.7399 82.7033C30.7399 88.8302 35.7089 93.797 41.8385 93.797Z" fill="#A0C4FF"/>
<path d="M33.9102 83.4226C33.5133 83.4226 33.1911 83.1006 33.1911 82.7038C33.1911 77.9383 37.0699 74.0612 41.8361 74.0612C42.2331 74.0612 42.5552 74.3832 42.5552 74.78C42.5552 75.1767 42.2331 75.4988 41.8361 75.4988C37.8624 75.4988 34.6293 78.7304 34.6293 82.7038C34.6293 83.1006 34.3086 83.4226 33.9102 83.4226Z" fill="#0E2443"/>
<path d="M131.177 93.797C137.307 93.797 142.276 88.8302 142.276 82.7033C142.276 76.5764 137.307 71.6096 131.177 71.6096C125.048 71.6096 120.079 76.5764 120.079 82.7033C120.079 88.8302 125.048 93.797 131.177 93.797Z" fill="#A0C4FF"/>
<path d="M139.103 83.4226C138.706 83.4226 138.384 83.1006 138.384 82.7038C138.384 78.7304 135.151 75.4988 131.177 75.4988C130.78 75.4988 130.458 75.1767 130.458 74.78C130.458 74.3832 130.78 74.0612 131.177 74.0612C135.943 74.0612 139.822 77.9383 139.822 82.7038C139.822 83.1006 139.501 83.4226 139.103 83.4226Z" fill="#0E2443"/>
<path d="M131.175 27.5392C143.784 23.6995 129.774 8.70856 105.572 10.6637C111.175 -8.79668 51.8439 0.00698408 45.2325 25.8415C42.8782 15.307 28.1452 22.5394 37.3109 31.3977C24.0377 27.8828 24.5598 44.7354 36.9327 42.3979C34.3396 56.1195 37.7337 71.4842 45.9214 72.6644C55.0684 73.9841 52.9326 37.5792 52.9326 37.5792C52.9326 37.5792 78.8159 55.395 92.0632 55.1391C105.31 54.8832 101.079 46.9291 101.079 46.9291C101.079 46.9291 110.569 49.5239 120.128 50.4124C120.399 60.7528 121.832 73.4537 127.302 72.6644C134.323 71.6524 137.814 60.2108 137.033 48.3178C141.211 45.3708 141.002 39.2425 131.175 27.5392Z" fill="#0E2443"/>
</svg>
