<svg xmlns="http://www.w3.org/2000/svg" version="1.1" xmlns:xlink="http://www.w3.org/1999/xlink" width="512" height="512" x="0" y="0" viewBox="0 0 512 512" style="enable-background:new 0 0 512 512" xml:space="preserve" class=""><g><path d="M278.258 482.608 231.299 492l9.392-46.959a79.997 79.997 0 0 1 21.878-40.879L435.431 231.3 492 287.868 319.138 460.73a79.996 79.996 0 0 1-40.88 21.878zM380 173.602v-33.603M260 20H60c-22.091 0-40 17.909-40 40v392c0 22.091 17.909 40 40 40h89.728M380 140h-80c-22.091 0-40-17.909-40-40V20l120 120zM100 212h200M100 292h161.602M100 372h85.971" style="stroke-linecap: round; stroke-linejoin: round; stroke-miterlimit: 10;" fill="none" stroke="#000000" stroke-width="40px" stroke-linecap="round" stroke-linejoin="round" stroke-miterlimit="10" data-original="#000000" class=""></path></g></svg>